<?xml version="1.0" ?><!DOCTYPE svg  PUBLIC '-//W3C//DTD SVG 1.1//EN'  'http://www.w3.org/Graphics/SVG/1.1/DTD/svg11.dtd'><svg enable-background="new 0 0 512 512" id="Layer_7" version="1.1" viewBox="0 0 512 512" xml:space="preserve" xmlns="http://www.w3.org/2000/svg" xmlns:xlink="http://www.w3.org/1999/xlink"><g><circle cx="256" cy="297.3" fill="#60ADE0" r="167"/><path d="M397,208c-16.3-25.6-39.3-46.5-66.7-60.2h-149c-17.5,8.7-33.2,20.4-46.6,34.5v230.2   c16.6,17.5,37,31.4,59.8,40.4h122.6c33.1-13.1,61-36.4,79.9-66.1V208z" fill="#E5E5E5"/><path d="M387.1,383.4c0,9.5-44.3,53.8-53.8,53.8H178.7c-9.5,0-53.8-35.1-53.8-44.7v-243c0-9.5,7.7-17.3,17.3-17.3   h227.6c9.5,0,17.3,7.7,17.3,17.3V383.4z" fill="#F1F5F6"/><g><defs><circle cx="256" cy="297.3" id="SVGID_1_" r="167"/></defs><clipPath id="SVGID_2_"><use overflow="visible" xlink:href="#SVGID_1_"/></clipPath><path clip-path="url(#SVGID_2_)" d="M387.1,419.9c0,9.5-7.7,17.3-17.3,17.3H142.2c-9.5,0-17.3-7.7-17.3-17.3V149.5    c0-9.5,7.7-17.3,17.3-17.3h227.6c9.5,0,17.3,7.7,17.3,17.3V419.9z" fill="#F1F5F6"/></g><path d="M387.1,180.7H124.9v-31.2c0-9.5,7.7-17.3,17.3-17.3h227.6c9.5,0,17.3,7.7,17.3,17.3V180.7z" fill="#4A5055"/><rect fill="#ADAEB0" height="17.3" width="186.6" x="167.2" y="234.7"/><rect fill="#ADAEB0" height="17.3" width="186.6" x="167.2" y="275.1"/><rect fill="#ADAEB0" height="17.3" width="186.6" x="167.2" y="315.4"/><rect fill="#ADAEB0" height="17.3" width="186.6" x="167.2" y="355.8"/><path d="M256,128.4V169h-78c0,0,0-11,0-16.6c0-5.5,9.1-7.9,18-7.9c8.9,0,30-3.6,31.1-17.8s1.1-23.5,10-31   c8.9-7.4,19-6.7,19-6.7v16.1c0,0-12-0.2-12,11.8S256,128.4,256,128.4z" fill="#E0E1E4"/><path d="M256,128.4V169h78c0,0,0-11,0-16.6c0-5.5-9.1-7.9-18-7.9c-8.9,0-30-3.6-31.1-17.8c-1.1-14.2-1.1-23.5-10-31   c-8.9-7.4-19-6.7-19-6.7v16.1c0,0,12-0.2,12,11.8S256,128.4,256,128.4z" fill="#D5D7D8"/></g></svg>