<?xml version="1.0" encoding="utf-8"?>
<!-- Generator: Adobe Illustrator 17.1.0, SVG Export Plug-In . SVG Version: 6.00 Build 0)  -->
<!DOCTYPE svg PUBLIC "-//W3C//DTD SVG 1.1//EN" "http://www.w3.org/Graphics/SVG/1.1/DTD/svg11.dtd">
<svg version="1.1" id="newspaper" xmlns="http://www.w3.org/2000/svg" xmlns:xlink="http://www.w3.org/1999/xlink" x="0px" y="0px"
	 viewBox="0 0 1010 1010" enable-background="new 0 0 1010 1010" xml:space="preserve">
<g id="newspaper-newspaper">
	<circle id="newspaper-label" fill="#55415B" cx="505" cy="505" r="505"/>
	<g id="newspaper-newspaper_1_">
		<g>
			<path fill="#EFEBDE" d="M268.7949,717.5898h529.1035V292.4102H325.478v368.4921
				C325.478,692.2051,300.0928,717.5898,268.7949,717.5898z"/>
			<path fill="#D5D0BB" d="M212.1021,358.5459v302.3564c0,31.3028,25.3852,56.6875,56.6928,56.6875
				c31.2979,0,56.6831-25.3847,56.6831-56.6875V358.5459H212.1021z"/>
		</g>
		<g>
			<rect x="372.7334" y="330.2021" fill="#F36360" width="377.9346" height="78.2002"/>
			<g>
				<path fill="none" d="M750.668,396.3481"/>
			</g>
			<g>
				<polygon fill="#D5D0BB" points="618.3867,444.2422 505.0107,444.2422 505.0107,424.0381 618.3867,424.0381 618.3867,444.2422 
									"/>
			</g>
			<g>
				<polygon fill="#D5D0BB" points="486.1143,444.2422 372.7334,444.2422 372.7334,424.0381 486.1143,424.0381 486.1143,444.2422 
									"/>
			</g>
			<g>
				<polygon fill="#D5D0BB" points="618.3867,482.0342 505.0107,482.0342 505.0107,461.8403 618.3867,461.8403 618.3867,482.0342 
									"/>
			</g>
			<g>
				<polygon fill="#D5D0BB" points="618.3867,519.8359 505.0107,519.8359 505.0107,499.6323 618.3867,499.6323 618.3867,519.8359 
									"/>
			</g>
			<g>
				<polygon fill="#D5D0BB" points="618.3867,557.6289 505.0107,557.6289 505.0107,537.4346 618.3867,537.4346 618.3867,557.6289 
									"/>
			</g>
			<g>
				<polygon fill="#D5D0BB" points="750.668,595.4102 637.293,595.4102 637.293,575.2061 750.668,575.2061 750.668,595.4102 				"/>
			</g>
			<g>
				<polygon fill="#D5D0BB" points="618.3867,595.4102 505.0107,595.4102 505.0107,575.2061 618.3867,575.2061 618.3867,595.4102 
									"/>
			</g>
			<g>
				<polygon fill="#D5D0BB" points="750.668,633.2021 637.293,633.2021 637.293,612.998 750.668,612.998 750.668,633.2021 				"/>
			</g>
			<g>
				<polygon fill="#D5D0BB" points="618.3867,633.2021 505.0107,633.2021 505.0107,612.998 618.3867,612.998 618.3867,633.2021 				
					"/>
			</g>
			<g>
				<polygon fill="#D5D0BB" points="750.668,670.9941 637.293,670.9941 637.293,650.7998 750.668,650.7998 750.668,670.9941 				"/>
			</g>
			<g>
				<polygon fill="#D5D0BB" points="618.3867,670.9941 505.0107,670.9941 505.0107,650.7998 618.3867,650.7998 618.3867,670.9941 
									"/>
			</g>
			<rect x="646.7402" y="434.1401" fill="#F77B55" width="94.4805" height="113.3863"/>
			<rect x="646.7402" y="434.1401" fill="#FBCD64" width="94.4805" height="113.3863"/>
			<rect x="382.1816" y="471.9424" fill="#7CCACB" width="94.4795" height="188.9599"/>
		</g>
	</g>
</g>
</svg>
